<svg width="22" height="22" viewBox="0 0 22 22" fill="none" xmlns="http://www.w3.org/2000/svg">
<path d="M15.5837 16.5C16.0699 16.5 16.5362 16.6931 16.88 17.037C17.2238 17.3808 17.417 17.8471 17.417 18.3333C17.417 18.8195 17.2238 19.2859 16.88 19.6297C16.5362 19.9735 16.0699 20.1666 15.5837 20.1666C15.0974 20.1666 14.6311 19.9735 14.2873 19.6297C13.9435 19.2859 13.7503 18.8195 13.7503 18.3333C13.7503 17.3158 14.5662 16.5 15.5837 16.5ZM0.916992 1.83331H3.91449L4.77616 3.66665H18.3337C18.5768 3.66665 18.8099 3.76322 18.9818 3.93513C19.1537 4.10704 19.2503 4.3402 19.2503 4.58331C19.2503 4.73915 19.2045 4.89498 19.1403 5.04165L15.8587 10.9725C15.547 11.5316 14.942 11.9166 14.2545 11.9166H7.42533L6.60033 13.4108L6.57283 13.5208C6.57283 13.5816 6.59697 13.6399 6.63995 13.6829C6.68292 13.7258 6.74121 13.75 6.80199 13.75H17.417V15.5833H6.41699C5.93076 15.5833 5.46445 15.3902 5.12063 15.0463C4.77681 14.7025 4.58366 14.2362 4.58366 13.75C4.58366 13.4291 4.66616 13.1266 4.80366 12.87L6.05033 10.6241L2.75033 3.66665H0.916992V1.83331ZM6.41699 16.5C6.90322 16.5 7.36954 16.6931 7.71335 17.037C8.05717 17.3808 8.25033 17.8471 8.25033 18.3333C8.25033 18.8195 8.05717 19.2859 7.71335 19.6297C7.36954 19.9735 6.90322 20.1666 6.41699 20.1666C5.93076 20.1666 5.46445 19.9735 5.12063 19.6297C4.77681 19.2859 4.58366 18.8195 4.58366 18.3333C4.58366 17.3158 5.39949 16.5 6.41699 16.5ZM14.667 10.0833L17.2153 5.49998H5.62866L7.79199 10.0833H14.667Z" fill="black"/>
</svg>
