<svg width="14" height="14" viewBox="0 0 14 14" fill="none" xmlns="http://www.w3.org/2000/svg">
<g clip-path="url(#clip0_22_1230)">
<path d="M3.50024 7.00004L7.00024 10.5M5.25024 5.25004L8.75024 8.75004M6.82874 13.0049C6.77513 13.0595 6.7112 13.1029 6.64066 13.1326C6.57013 13.1623 6.49439 13.1776 6.41786 13.1778C6.34133 13.178 6.26553 13.1629 6.19487 13.1335C6.12421 13.1041 6.06009 13.061 6.00624 13.0066L0.993661 7.99346C0.885425 7.88396 0.824869 7.7361 0.825197 7.58214C0.825524 7.42817 0.88671 7.28058 0.995411 7.17154L7.58358 0.583374H13.4169V6.41671L6.82874 13.0049ZM9.91691 3.50004C9.91691 3.34533 9.97837 3.19696 10.0878 3.08756C10.1972 2.97817 10.3455 2.91671 10.5002 2.91671C10.655 2.91671 10.8033 2.97817 10.9127 3.08756C11.0221 3.19696 11.0836 3.34533 11.0836 3.50004C11.0836 3.65475 11.0221 3.80312 10.9127 3.91252C10.8033 4.02192 10.655 4.08337 10.5002 4.08337C10.3455 4.08337 10.1972 4.02192 10.0878 3.91252C9.97837 3.80312 9.91691 3.65475 9.91691 3.50004Z" stroke="white" stroke-width="1.16667"/>
</g>
<defs>
<clipPath id="clip0_22_1230">
<rect width="14" height="14" fill="white"/>
</clipPath>
</defs>
</svg>
