<svg width="24" height="24" viewBox="0 0 19 19" fill="none" xmlns="http://www.w3.org/2000/svg">
<path d="M9.57884 14.6854L9.49967 14.7646L9.41259 14.6854C5.65217 11.2733 3.16634 9.01708 3.16634 6.72917C3.16634 5.14583 4.35384 3.95833 5.93717 3.95833C7.15634 3.95833 8.34384 4.75 8.76342 5.82667H10.2359C10.6555 4.75 11.843 3.95833 13.0622 3.95833C14.6455 3.95833 15.833 5.14583 15.833 6.72917C15.833 9.01708 13.3472 11.2733 9.57884 14.6854ZM13.0622 2.375C11.6847 2.375 10.3626 3.01625 9.49967 4.02167C8.63676 3.01625 7.31467 2.375 5.93717 2.375C3.49884 2.375 1.58301 4.28292 1.58301 6.72917C1.58301 9.71375 4.27467 12.16 8.35176 15.8571L9.49967 16.9021L10.6476 15.8571C14.7247 12.16 17.4163 9.71375 17.4163 6.72917C17.4163 4.28292 15.5005 2.375 13.0622 2.375Z" fill="#FF3838"/>
</svg>
